<svg width="1000" height="199" viewBox="0 0 1000 199" fill="none" xmlns="http://www.w3.org/2000/svg">
<path fill-rule="evenodd" clip-rule="evenodd" d="M974.795 151.227C975.4 158.121 980.914 166.895 990.467 166.895H996.057C998.223 166.895 1000 165.119 1000 162.951V40.0229H999.975C999.862 37.9519 998.151 36.2933 996.057 36.2933H978.737C976.643 36.2933 974.932 37.9519 974.817 40.0229H974.795V50.0115C964.184 36.9311 947.453 31.502 930.676 31.502C892.539 31.502 861.625 62.4403 861.625 100.607C861.625 138.776 892.539 169.715 930.676 169.715V169.718C947.453 169.718 965.736 163.205 974.792 151.211L974.795 151.227V151.227ZM930.743 145.529C906.489 145.529 886.825 125.419 886.825 100.607C886.825 75.7999 906.489 55.6884 930.743 55.6884C954.996 55.6884 974.657 75.7999 974.657 100.607C974.657 125.419 954.996 145.529 930.743 145.529V145.529Z" fill="#0D0E10"/>
<path fill-rule="evenodd" clip-rule="evenodd" d="M839.729 155.455L839.721 91.8449H839.723C839.723 55.9882 817.119 31.7988 781.075 31.7988C763.869 31.7988 749.764 41.756 744.783 50.3094C743.706 43.6213 740.158 36.5912 729.155 36.5912H723.547C721.378 36.5912 719.606 38.3684 719.606 40.5369V151.535C719.606 151.538 719.606 151.547 719.606 151.552V163.475H719.628C719.742 165.543 721.455 167.204 723.549 167.204H740.869C741.134 167.204 741.394 167.172 741.645 167.123C741.76 167.101 741.867 167.056 741.978 167.024C742.107 166.984 742.241 166.954 742.363 166.904C742.518 166.84 742.657 166.754 742.801 166.674C742.871 166.631 742.944 166.601 743.012 166.555C743.185 166.444 743.344 166.31 743.497 166.172C743.522 166.147 743.552 166.13 743.577 166.107C743.749 165.941 743.906 165.757 744.046 165.566C744.047 165.563 744.047 165.563 744.047 165.563C744.481 164.967 744.744 164.249 744.787 163.475H744.809V90.8587C744.809 71.6012 760.41 55.9882 779.655 55.9882C798.898 55.9882 814.499 71.6012 814.499 90.8587L814.515 151.556L814.519 151.535C814.519 151.589 814.528 151.644 814.528 151.702V163.475H814.551C814.665 165.543 816.376 167.204 818.47 167.204H835.791C836.057 167.204 836.316 167.172 836.567 167.123C836.669 167.104 836.764 167.063 836.864 167.035C837.006 166.994 837.151 166.958 837.288 166.904C837.429 166.845 837.558 166.763 837.692 166.688C837.774 166.641 837.86 166.608 837.939 166.555C838.098 166.45 838.245 166.324 838.388 166.198C838.425 166.164 838.466 166.139 838.501 166.104C838.665 165.946 838.811 165.775 838.945 165.595C838.954 165.582 838.965 165.571 838.975 165.558C839.402 164.967 839.663 164.255 839.708 163.486C839.708 163.48 839.71 163.475 839.71 163.475H839.733V155.457L839.729 155.455" fill="#0D0E10"/>
<path fill-rule="evenodd" clip-rule="evenodd" d="M659.351 151.227C659.957 158.121 665.471 166.895 675.023 166.895H680.613C682.78 166.895 684.553 165.119 684.553 162.951V40.0229H684.531C684.418 37.9519 682.705 36.2933 680.613 36.2933H663.293C661.199 36.2933 659.488 37.9519 659.371 40.0229H659.351V50.0115C648.738 36.9311 632.008 31.502 615.23 31.502C577.095 31.502 546.181 62.4403 546.181 100.607C546.181 138.776 577.095 169.715 615.23 169.715V169.718C632.008 169.718 650.293 163.205 659.349 151.211L659.351 151.227V151.227ZM615.297 145.529C591.045 145.529 571.382 125.419 571.382 100.607C571.382 75.7999 591.045 55.6884 615.297 55.6884C639.552 55.6884 659.211 75.7999 659.211 100.607C659.211 125.419 639.552 145.529 615.297 145.529V145.529Z" fill="#0D0E10"/>
<path fill-rule="evenodd" clip-rule="evenodd" d="M443.756 133.621C455.318 141.637 467.939 145.53 480.067 145.53C491.621 145.53 503.566 139.536 503.566 129.102C503.566 115.172 477.538 113.005 461.184 107.442C444.828 101.88 430.741 90.3815 430.741 71.7608C430.741 43.2679 456.109 31.5 479.786 31.5C494.788 31.5 510.267 36.4508 520.302 43.5428C523.758 46.1635 521.653 49.1723 521.653 49.1723L512.074 62.8643C510.997 64.4065 509.115 65.7389 506.412 64.0697C503.71 62.4016 494.231 55.6873 479.786 55.6873C465.34 55.6873 456.638 62.3639 456.638 70.6393C456.638 80.5629 467.948 83.684 481.195 87.0663C504.28 93.2939 529.463 100.779 529.463 129.102C529.463 154.206 505.999 169.721 480.067 169.721C460.415 169.721 443.684 164.114 429.651 153.809C426.728 150.881 428.77 148.162 428.77 148.162L438.302 134.54C440.241 131.993 442.687 132.881 443.756 133.621" fill="#0D0E10"/>
<path fill-rule="evenodd" clip-rule="evenodd" d="M377.173 151.227C377.779 158.121 383.293 166.895 392.846 166.895H398.436C400.602 166.895 402.378 165.119 402.378 162.951V40.0229H402.354C402.241 37.9519 400.53 36.2933 398.436 36.2933H381.116C379.022 36.2933 377.311 37.9519 377.194 40.0229H377.173V50.0115C366.562 36.9311 349.831 31.502 333.054 31.502C294.919 31.502 264.004 62.4403 264.004 100.607C264.004 138.776 294.919 169.715 333.054 169.715V169.718C349.831 169.718 368.115 163.205 377.171 151.211L377.173 151.227V151.227ZM333.122 145.529C308.868 145.529 289.205 125.419 289.205 100.607C289.205 75.7999 308.868 55.6884 333.122 55.6884C357.375 55.6884 377.035 75.7999 377.035 100.607C377.035 125.419 357.375 145.529 333.122 145.529V145.529Z" fill="#0D0E10"/>
<path fill-rule="evenodd" clip-rule="evenodd" d="M167.197 105.308C141.533 105.308 120.729 126.112 120.729 151.778C120.729 177.442 141.533 198.246 167.197 198.246C192.861 198.246 213.665 177.442 213.665 151.778C213.665 126.112 192.861 105.308 167.197 105.308V105.308ZM46.4683 105.312C20.8048 105.312 0 126.113 0 151.778C0 177.442 20.8048 198.247 46.4683 198.247C72.1329 198.247 92.9387 177.442 92.9387 151.778C92.9387 126.113 72.1329 105.312 46.4683 105.312V105.312ZM153.3 47.2212C153.3 72.8868 132.496 93.6937 106.833 93.6937C81.1681 93.6937 60.3643 72.8868 60.3643 47.2212C60.3643 21.5607 81.1681 0.753906 106.833 0.753906C132.496 0.753906 153.3 21.5607 153.3 47.2212V47.2212Z" fill="#0D0E10"/>
</svg>
